{
    "asset" : {
        "generator" : "Khronos glTF Blender I/O v3.3.27",
        "version" : "2.0"
    },
    "scene" : 0,
    "scenes" : [
        {
            "name" : "Scene",
            "nodes" : [
                7
            ]
        }
    ],
    "nodes" : [
        {
            "mesh" : 0,
            "name" : "Cube",
            "rotation" : [
                0.004363310057669878,
                0,
                0,
                0.9999904632568359
            ],
            "scale" : [
                0.4791666269302368,
                0.03125,
                0.1666666567325592
            ],
            "translation" : [
                -0.0044304076582193375,
                -0.016976255923509598,
                0.01595534384250641
            ]
        },
        {
            "mesh" : 1,
            "name" : "Cube.046",
            "scale" : [
                -0.028824716806411743,
                -0.028824716806411743,
                -0.028824716806411743
            ],
            "translation" : [
                -0.1379069834947586,
                0.00630433252081275,
                -0.020749663934111595
            ]
        },
        {
            "mesh" : 2,
            "name" : "Cube.047",
            "scale" : [
                -0.028824716806411743,
                -0.028824716806411743,
                -0.028824716806411743
            ],
            "translation" : [
                0.12801238894462585,
                0.003764336695894599,
                -0.001453120494261384
            ]
        },
        {
            "mesh" : 3,
            "name" : "Cube.052",
            "scale" : [
                -0.028824716806411743,
                -0.028824716806411743,
                -0.028824716806411743
            ],
            "translation" : [
                -0.13787929713726044,
                0.0012243427336215973,
                0.017347125336527824
            ]
        },
        {
            "mesh" : 4,
            "name" : "Cube.053",
            "scale" : [
                -0.028824716806411743,
                -0.028824716806411743,
                -0.028824716806411743
            ],
            "translation" : [
                -0.13775406777858734,
                -0.0013156627537682652,
                0.03590001165866852
            ]
        },
        {
            "mesh" : 5,
            "name" : "Cube.060",
            "scale" : [
                -0.028824716806411743,
                -0.028824716806411743,
                -0.028824716806411743
            ],
            "translation" : [
                0.0989842489361763,
                -0.003855663351714611,
                0.054401904344558716
            ]
        },
        {
            "mesh" : 6,
            "name" : "Cube.062",
            "rotation" : [
                0.06285504251718521,
                0,
                0,
                0.9980226755142212
            ],
            "scale" : [
                0.4734346866607666,
                0.15821824967861176,
                0.15821823477745056
            ],
            "translation" : [
                -0.004773641005158424,
                -0.004167758394032717,
                0.016522087156772614
            ]
        },
        {
            "children" : [
                0,
                1,
                2,
                3,
                4,
                5,
                6
            ],
            "name" : "Empty",
            "rotation" : [
                0.44900965690612793,
                -0.5539675354957581,
                -0.4390343725681305,
                0.546588659286499
            ],
            "translation" : [
                0.006838902831077576,
                0.0013156644999980927,
                -0.01595534384250641
            ]
        }
    ],
    "materials" : [
        {
            "doubleSided" : true,
            "name" : "SPEAKER SIFT",
            "pbrMetallicRoughness" : {}
        },
        {
            "doubleSided" : true,
            "name" : "SPEAKER SIFT.002",
            "pbrMetallicRoughness" : {}
        },
        {
            "doubleSided" : true,
            "name" : "MATTE PLASTIC",
            "pbrMetallicRoughness" : {}
        }
    ],
    "meshes" : [
        {
            "name" : "Cube.001",
            "primitives" : [
                {
                    "attributes" : {
                        "POSITION" : 0,
                        "NORMAL" : 1,
                        "TEXCOORD_0" : 2
                    },
                    "indices" : 3,
                    "material" : 0
                }
            ]
        },
        {
            "name" : "Cube.047",
            "primitives" : [
                {
                    "attributes" : {
                        "POSITION" : 4,
                        "NORMAL" : 5,
                        "TEXCOORD_0" : 6
                    },
                    "indices" : 7,
                    "material" : 1
                }
            ]
        },
        {
            "name" : "Cube.048",
            "primitives" : [
                {
                    "attributes" : {
                        "POSITION" : 8,
                        "NORMAL" : 9,
                        "TEXCOORD_0" : 10
                    },
                    "indices" : 7,
                    "material" : 1
                }
            ]
        },
        {
            "name" : "Cube.053",
            "primitives" : [
                {
                    "attributes" : {
                        "POSITION" : 11,
                        "NORMAL" : 12,
                        "TEXCOORD_0" : 13
                    },
                    "indices" : 14,
                    "material" : 1
                }
            ]
        },
        {
            "name" : "Cube.054",
            "primitives" : [
                {
                    "attributes" : {
                        "POSITION" : 15,
                        "NORMAL" : 16,
                        "TEXCOORD_0" : 17
                    },
                    "indices" : 18,
                    "material" : 1
                }
            ]
        },
        {
            "name" : "Cube.061",
            "primitives" : [
                {
                    "attributes" : {
                        "POSITION" : 19,
                        "NORMAL" : 20,
                        "TEXCOORD_0" : 21
                    },
                    "indices" : 22,
                    "material" : 1
                }
            ]
        },
        {
            "name" : "Cube.063",
            "primitives" : [
                {
                    "attributes" : {
                        "POSITION" : 23,
                        "NORMAL" : 24,
                        "TEXCOORD_0" : 25
                    },
                    "indices" : 26,
                    "material" : 2
                }
            ]
        }
    ],
    "accessors" : [
        {
            "bufferView" : 0,
            "componentType" : 5126,
            "count" : 1184,
            "max" : [
                0.30480000376701355,
                0.6690281629562378,
                0.29621070623397827
            ],
            "min" : [
                -0.3072204887866974,
                -0.3047999441623688,
                -0.30545032024383545
            ],
            "type" : "VEC3"
        },
        {
            "bufferView" : 1,
            "componentType" : 5126,
            "count" : 1184,
            "type" : "VEC3"
        },
        {
            "bufferView" : 2,
            "componentType" : 5126,
            "count" : 1184,
            "type" : "VEC2"
        },
        {
            "bufferView" : 3,
            "componentType" : 5123,
            "count" : 2094,
            "type" : "SCALAR"
        },
        {
            "bufferView" : 4,
            "componentType" : 5126,
            "count" : 19810,
            "max" : [
                0.30480000376701355,
                0.30480000376701355,
                0.30480000376701355
            ],
            "min" : [
                -9.527318954467773,
                -0.11018756777048111,
                -0.30480000376701355
            ],
            "type" : "VEC3"
        },
        {
            "bufferView" : 5,
            "componentType" : 5126,
            "count" : 19810,
            "type" : "VEC3"
        },
        {
            "bufferView" : 6,
            "componentType" : 5126,
            "count" : 19810,
            "type" : "VEC2"
        },
        {
            "bufferView" : 7,
            "componentType" : 5123,
            "count" : 99624,
            "type" : "SCALAR"
        },
        {
            "bufferView" : 8,
            "componentType" : 5126,
            "count" : 19810,
            "max" : [
                9.534027099609375,
                0.30480000376701355,
                0.30480000376701355
            ],
            "min" : [
                -0.30480000376701355,
                -0.11018756777048111,
                -0.30480003356933594
            ],
            "type" : "VEC3"
        },
        {
            "bufferView" : 9,
            "componentType" : 5126,
            "count" : 19810,
            "type" : "VEC3"
        },
        {
            "bufferView" : 10,
            "componentType" : 5126,
            "count" : 19810,
            "type" : "VEC2"
        },
        {
            "bufferView" : 11,
            "componentType" : 5126,
            "count" : 18395,
            "max" : [
                0.30480000376701355,
                0.30480003356933594,
                0.30480000376701355
            ],
            "min" : [
                -9.522153854370117,
                -0.11018756777048111,
                -0.30480000376701355
            ],
            "type" : "VEC3"
        },
        {
            "bufferView" : 12,
            "componentType" : 5126,
            "count" : 18395,
            "type" : "VEC3"
        },
        {
            "bufferView" : 13,
            "componentType" : 5126,
            "count" : 18395,
            "type" : "VEC2"
        },
        {
            "bufferView" : 14,
            "componentType" : 5123,
            "count" : 92508,
            "type" : "SCALAR"
        },
        {
            "bufferView" : 15,
            "componentType" : 5126,
            "count" : 16980,
            "max" : [
                0.30480000376701355,
                0.30480003356933594,
                0.30480000376701355
            ],
            "min" : [
                -9.510723114013672,
                -0.11018756777048111,
                -0.30480000376701355
            ],
            "type" : "VEC3"
        },
        {
            "bufferView" : 16,
            "componentType" : 5126,
            "count" : 16980,
            "type" : "VEC3"
        },
        {
            "bufferView" : 17,
            "componentType" : 5126,
            "count" : 16980,
            "type" : "VEC2"
        },
        {
            "bufferView" : 18,
            "componentType" : 5123,
            "count" : 85392,
            "type" : "SCALAR"
        },
        {
            "bufferView" : 19,
            "componentType" : 5126,
            "count" : 11320,
            "max" : [
                8.514900207519531,
                0.30480003356933594,
                0.30480000376701355
            ],
            "min" : [
                -1.2975523471832275,
                -0.11018756777048111,
                -0.30480000376701355
            ],
            "type" : "VEC3"
        },
        {
            "bufferView" : 20,
            "componentType" : 5126,
            "count" : 11320,
            "type" : "VEC3"
        },
        {
            "bufferView" : 21,
            "componentType" : 5126,
            "count" : 11320,
            "type" : "VEC2"
        },
        {
            "bufferView" : 22,
            "componentType" : 5123,
            "count" : 56928,
            "type" : "SCALAR"
        },
        {
            "bufferView" : 23,
            "componentType" : 5126,
            "count" : 9669,
            "max" : [
                0.304199755191803,
                0.006396442651748657,
                0.30338945984840393
            ],
            "min" : [
                -0.3054002523422241,
                -0.0065357983112335205,
                -0.30621054768562317
            ],
            "type" : "VEC3"
        },
        {
            "bufferView" : 24,
            "componentType" : 5126,
            "count" : 9669,
            "type" : "VEC3"
        },
        {
            "bufferView" : 25,
            "componentType" : 5126,
            "count" : 9669,
            "type" : "VEC2"
        },
        {
            "bufferView" : 26,
            "componentType" : 5123,
            "count" : 28893,
            "type" : "SCALAR"
        }
    ],
    "bufferViews" : [
        {
            "buffer" : 0,
            "byteLength" : 14208,
            "byteOffset" : 0,
            "target" : 34962
        },
        {
            "buffer" : 0,
            "byteLength" : 14208,
            "byteOffset" : 14208,
            "target" : 34962
        },
        {
            "buffer" : 0,
            "byteLength" : 9472,
            "byteOffset" : 28416,
            "target" : 34962
        },
        {
            "buffer" : 0,
            "byteLength" : 4188,
            "byteOffset" : 37888,
            "target" : 34963
        },
        {
            "buffer" : 0,
            "byteLength" : 237720,
            "byteOffset" : 42076,
            "target" : 34962
        },
        {
            "buffer" : 0,
            "byteLength" : 237720,
            "byteOffset" : 279796,
            "target" : 34962
        },
        {
            "buffer" : 0,
            "byteLength" : 158480,
            "byteOffset" : 517516,
            "target" : 34962
        },
        {
            "buffer" : 0,
            "byteLength" : 199248,
            "byteOffset" : 675996,
            "target" : 34963
        },
        {
            "buffer" : 0,
            "byteLength" : 237720,
            "byteOffset" : 875244,
            "target" : 34962
        },
        {
            "buffer" : 0,
            "byteLength" : 237720,
            "byteOffset" : 1112964,
            "target" : 34962
        },
        {
            "buffer" : 0,
            "byteLength" : 158480,
            "byteOffset" : 1350684,
            "target" : 34962
        },
        {
            "buffer" : 0,
            "byteLength" : 220740,
            "byteOffset" : 1509164,
            "target" : 34962
        },
        {
            "buffer" : 0,
            "byteLength" : 220740,
            "byteOffset" : 1729904,
            "target" : 34962
        },
        {
            "buffer" : 0,
            "byteLength" : 147160,
            "byteOffset" : 1950644,
            "target" : 34962
        },
        {
            "buffer" : 0,
            "byteLength" : 185016,
            "byteOffset" : 2097804,
            "target" : 34963
        },
        {
            "buffer" : 0,
            "byteLength" : 203760,
            "byteOffset" : 2282820,
            "target" : 34962
        },
        {
            "buffer" : 0,
            "byteLength" : 203760,
            "byteOffset" : 2486580,
            "target" : 34962
        },
        {
            "buffer" : 0,
            "byteLength" : 135840,
            "byteOffset" : 2690340,
            "target" : 34962
        },
        {
            "buffer" : 0,
            "byteLength" : 170784,
            "byteOffset" : 2826180,
            "target" : 34963
        },
        {
            "buffer" : 0,
            "byteLength" : 135840,
            "byteOffset" : 2996964,
            "target" : 34962
        },
        {
            "buffer" : 0,
            "byteLength" : 135840,
            "byteOffset" : 3132804,
            "target" : 34962
        },
        {
            "buffer" : 0,
            "byteLength" : 90560,
            "byteOffset" : 3268644,
            "target" : 34962
        },
        {
            "buffer" : 0,
            "byteLength" : 113856,
            "byteOffset" : 3359204,
            "target" : 34963
        },
        {
            "buffer" : 0,
            "byteLength" : 116028,
            "byteOffset" : 3473060,
            "target" : 34962
        },
        {
            "buffer" : 0,
            "byteLength" : 116028,
            "byteOffset" : 3589088,
            "target" : 34962
        },
        {
            "buffer" : 0,
            "byteLength" : 77352,
            "byteOffset" : 3705116,
            "target" : 34962
        },
        {
            "buffer" : 0,
            "byteLength" : 57786,
            "byteOffset" : 3782468,
            "target" : 34963
        }
    ],
    "buffers" : [
        {
            "byteLength" : 3840256,
            "uri" : "keyboard11.bin"
        }
    ]
}
